<svg xmlns="http://www.w3.org/2000/svg" version="1.1" xmlns:xlink="http://www.w3.org/1999/xlink" xmlns:svgjs="http://svgjs.com/svgjs" width="72.691" height="53.6"><svg width="72.691" height="53.6" viewBox="0 0 72.691 53.6" xmlns="http://www.w3.org/2000/svg"><g id="SvgjsG1000" stroke-linecap="round" fill-rule="evenodd" font-size="9pt" stroke="#000" stroke-width="0.25mm" fill="#000" style="stroke:#000;stroke-width:0.25mm;fill:#000"><path d="M 19.4 51.9 L 19.4 14.3 A 24.591 24.591 0 0 0 19.25 11.48 Q 18.91 8.545 17.799 6.796 A 6.282 6.282 0 0 0 17.45 6.3 A 6.342 6.342 0 0 0 12.799 3.835 A 9.085 9.085 0 0 0 12 3.8 A 7.473 7.473 0 0 0 9.522 4.2 A 6.692 6.692 0 0 0 7.8 5.1 Q 6 6.4 4.95 9.4 A 20.663 20.663 0 0 0 4.305 11.699 Q 4.034 12.909 3.833 14.334 A 51.201 51.201 0 0 0 3.5 17.4 Q 3.5 17.9 3.05 18.2 A 1.411 1.411 0 0 1 2.696 18.365 Q 2.34 18.479 1.809 18.497 A 6.093 6.093 0 0 1 1.6 18.5 A 2.296 2.296 0 0 1 1.091 18.447 A 1.609 1.609 0 0 1 0.45 18.15 Q 0 17.8 0 17.3 Q 0.153 12.936 1.098 9.715 A 18.53 18.53 0 0 1 1.75 7.85 A 15.636 15.636 0 0 1 3.16 5.164 Q 4.225 3.56 5.606 2.502 A 9.612 9.612 0 0 1 5.95 2.25 Q 8.6 0.4 12.2 0.4 A 14.58 14.58 0 0 1 14.42 0.561 Q 15.621 0.746 16.632 1.145 A 8.568 8.568 0 0 1 17 1.3 Q 19 2.2 20.35 3.8 A 10.292 10.292 0 0 1 22.222 7.152 A 11.929 11.929 0 0 1 22.35 7.55 Q 23 9.7 23 12.2 L 23 12.5 A 26.057 26.057 0 0 1 24.524 9.365 Q 25.452 7.758 26.537 6.502 A 15.473 15.473 0 0 1 26.85 6.15 A 19.19 19.19 0 0 1 29.607 3.657 A 15.897 15.897 0 0 1 31.7 2.35 A 19.208 19.208 0 0 1 36.243 0.658 A 17.749 17.749 0 0 1 37 0.5 A 29.648 29.648 0 0 1 40.858 0.036 A 25.836 25.836 0 0 1 42.2 0 A 19.109 19.109 0 0 1 47.074 0.602 A 16.212 16.212 0 0 1 50.45 1.9 A 13.243 13.243 0 0 1 55.391 6.407 A 16.803 16.803 0 0 1 56.25 7.85 A 16.408 16.408 0 0 1 57.642 11.562 Q 58.104 13.402 58.284 15.576 A 35.394 35.394 0 0 1 58.4 18.5 L 58.4 42.6 A 21.392 21.392 0 0 0 58.463 44.295 Q 58.529 45.123 58.664 45.836 A 10.492 10.492 0 0 0 58.85 46.65 Q 59.3 48.3 60.35 49.2 A 3.634 3.634 0 0 0 61.962 49.984 A 5.279 5.279 0 0 0 63.1 50.1 Q 64.2 50.1 65.3 49.8 Q 66.331 49.519 67.45 48.798 A 11.271 11.271 0 0 0 67.6 48.7 Q 68.8 47.9 69.9 46.6 Q 70.213 46.224 70.527 46.045 A 1.24 1.24 0 0 1 70.9 45.9 A 0.737 0.737 0 0 1 71.045 45.886 Q 71.486 45.886 72 46.4 A 2.284 2.284 0 0 1 72.349 46.742 A 1.622 1.622 0 0 1 72.65 47.3 A 0.97 0.97 0 0 1 72.691 47.581 Q 72.691 47.9 72.489 48.257 A 2.346 2.346 0 0 1 72.4 48.4 A 12.073 12.073 0 0 1 70.346 50.561 A 14.103 14.103 0 0 1 69.65 51.1 A 14.022 14.022 0 0 1 66.662 52.774 A 12.958 12.958 0 0 1 66.2 52.95 Q 64.4 53.6 62.5 53.6 A 8.453 8.453 0 0 1 60.209 53.297 A 7.628 7.628 0 0 1 59.35 53 Q 57.9 52.4 56.85 51.2 A 7.343 7.343 0 0 1 55.733 49.466 A 9.588 9.588 0 0 1 55.25 48.2 Q 54.777 46.653 54.711 44.59 A 21.419 21.419 0 0 1 54.7 43.9 L 54.7 19.3 A 32.113 32.113 0 0 0 54.494 15.554 Q 54.27 13.651 53.803 12.028 A 17.117 17.117 0 0 0 53.4 10.8 A 11.684 11.684 0 0 0 51.581 7.533 A 10.264 10.264 0 0 0 49.25 5.4 A 10.434 10.434 0 0 0 46.172 4.037 Q 44.814 3.668 43.21 3.553 A 21.086 21.086 0 0 0 41.7 3.5 Q 38.7 3.5 35.75 4.4 Q 32.8 5.3 30.3 7.3 A 16.272 16.272 0 0 0 27.61 10.064 A 21.707 21.707 0 0 0 25.9 12.65 A 22.298 22.298 0 0 0 24.363 16.025 Q 23.751 17.706 23.29 19.664 A 40.678 40.678 0 0 0 23 21 L 23 51.9 A 2.233 2.233 0 0 1 22.962 52.325 Q 22.87 52.802 22.55 53.05 A 1.355 1.355 0 0 1 22.166 53.253 Q 21.748 53.4 21.1 53.4 Q 20.273 53.4 19.868 53.105 A 0.989 0.989 0 0 1 19.8 53.05 Q 19.488 52.777 19.419 52.231 A 2.656 2.656 0 0 1 19.4 51.9 Z" vector-effect="non-scaling-stroke"></path></g></svg><style>@media (prefers-color-scheme: light) { :root { filter: none; } }
@media (prefers-color-scheme: dark) { :root { filter: invert(100%); } }
</style></svg>