<svg xmlns="http://www.w3.org/2000/svg" version="1.1" xmlns:xlink="http://www.w3.org/1999/xlink" xmlns:svgjs="http://svgjs.dev/svgjs" viewBox="0 0 800 800"><defs><linearGradient x1="50%" y1="0%" x2="50%" y2="100%" id="ffflurry-grad" gradientTransform="rotate(270)"><stop stop-color="#181b18" stop-opacity="1" offset="0%"></stop><stop stop-color="#f6f7f6" stop-opacity="1" offset="45%"></stop><stop stop-color="#404540" stop-opacity="1" offset="100%"></stop></linearGradient></defs><rect width="100%" height="100%" fill="#181b18"></rect><g fill="url(#ffflurry-grad)"><rect width="316" height="3" x="18" y="609.5" rx="1.5" transform="rotate(45, 176, 611)" opacity="0.49"></rect><rect width="380" height="3" x="487" y="34.5" rx="1.5" transform="rotate(45, 677, 36)" opacity="0.09"></rect><rect width="331" height="3" x="226.5" y="31.5" rx="1.5" transform="rotate(45, 392, 33)" opacity="0.50"></rect><rect width="80" height="3" x="25" y="759.5" rx="1.5" transform="rotate(45, 65, 761)" opacity="0.56"></rect><rect width="87" height="3" x="47.5" y="625.5" rx="1.5" transform="rotate(45, 91, 627)" opacity="0.61"></rect><rect width="301" height="3" x="106.5" y="670.5" rx="1.5" transform="rotate(45, 257, 672)" opacity="0.20"></rect><rect width="110" height="3" x="580" y="118.5" rx="1.5" transform="rotate(45, 635, 120)" opacity="0.73"></rect><rect width="445" height="3" x="546.5" y="621.5" rx="1.5" transform="rotate(45, 769, 623)" opacity="0.84"></rect><rect width="311" height="3" x="200.5" y="579.5" rx="1.5" transform="rotate(45, 356, 581)" opacity="0.52"></rect><rect width="798" height="3" x="344" y="744.5" rx="1.5" transform="rotate(45, 743, 746)" opacity="0.08"></rect><rect width="420" height="3" x="57" y="473.5" rx="1.5" transform="rotate(45, 267, 475)" opacity="0.60"></rect><rect width="295" height="3" x="467.5" y="587.5" rx="1.5" transform="rotate(45, 615, 589)" opacity="0.18"></rect><rect width="598" height="3" x="-244" y="65.5" rx="1.5" transform="rotate(45, 55, 67)" opacity="0.64"></rect><rect width="321" height="3" x="123.5" y="268.5" rx="1.5" transform="rotate(45, 284, 270)" opacity="0.75"></rect><rect width="173" height="3" x="624.5" y="554.5" rx="1.5" transform="rotate(45, 711, 556)" opacity="0.67"></rect><rect width="300" height="3" x="386" y="672.5" rx="1.5" transform="rotate(45, 536, 674)" opacity="0.90"></rect><rect width="502" height="3" x="305" y="760.5" rx="1.5" transform="rotate(45, 556, 762)" opacity="0.32"></rect><rect width="178" height="3" x="534" y="265.5" rx="1.5" transform="rotate(45, 623, 267)" opacity="0.78"></rect><rect width="513" height="3" x="-116.5" y="690.5" rx="1.5" transform="rotate(45, 140, 692)" opacity="0.35"></rect><rect width="333" height="3" x="533.5" y="640.5" rx="1.5" transform="rotate(45, 700, 642)" opacity="0.19"></rect><rect width="303" height="3" x="-67.5" y="507.5" rx="1.5" transform="rotate(45, 84, 509)" opacity="0.91"></rect><rect width="365" height="3" x="572.5" y="47.5" rx="1.5" transform="rotate(45, 755, 49)" opacity="0.45"></rect><rect width="413" height="3" x="464.5" y="182.5" rx="1.5" transform="rotate(45, 671, 184)" opacity="0.12"></rect><rect width="345" height="3" x="278.5" y="84.5" rx="1.5" transform="rotate(45, 451, 86)" opacity="0.11"></rect><rect width="422" height="3" x="-183" y="585.5" rx="1.5" transform="rotate(45, 28, 587)" opacity="0.75"></rect><rect width="383" height="3" x="51.5" y="539.5" rx="1.5" transform="rotate(45, 243, 541)" opacity="0.54"></rect><rect width="149" height="3" x="302.5" y="104.5" rx="1.5" transform="rotate(45, 377, 106)" opacity="0.91"></rect><rect width="436" height="3" x="67" y="371.5" rx="1.5" transform="rotate(45, 285, 373)" opacity="0.65"></rect><rect width="274" height="3" x="382" y="100.5" rx="1.5" transform="rotate(45, 519, 102)" opacity="0.54"></rect><rect width="193" height="3" x="555.5" y="727.5" rx="1.5" transform="rotate(45, 652, 729)" opacity="0.85"></rect><rect width="429" height="3" x="118.5" y="508.5" rx="1.5" transform="rotate(45, 333, 510)" opacity="0.47"></rect><rect width="143" height="3" x="476.5" y="513.5" rx="1.5" transform="rotate(45, 548, 515)" opacity="0.80"></rect><rect width="207" height="3" x="336.5" y="490.5" rx="1.5" transform="rotate(45, 440, 492)" opacity="0.70"></rect><rect width="92" height="3" x="286" y="685.5" rx="1.5" transform="rotate(45, 332, 687)" opacity="0.40"></rect><rect width="444" height="3" x="-57" y="515.5" rx="1.5" transform="rotate(45, 165, 517)" opacity="0.82"></rect><rect width="611" height="3" x="59.5" y="178.5" rx="1.5" transform="rotate(45, 365, 180)" opacity="0.85"></rect><rect width="63" height="3" x="721.5" y="121.5" rx="1.5" transform="rotate(45, 753, 123)" opacity="0.23"></rect><rect width="617" height="3" x="143.5" y="238.5" rx="1.5" transform="rotate(45, 452, 240)" opacity="0.10"></rect><rect width="221" height="3" x="99.5" y="440.5" rx="1.5" transform="rotate(45, 210, 442)" opacity="0.07"></rect><rect width="120" height="3" x="57" y="425.5" rx="1.5" transform="rotate(45, 117, 427)" opacity="1.00"></rect><rect width="633" height="3" x="323.5" y="356.5" rx="1.5" transform="rotate(45, 640, 358)" opacity="0.19"></rect><rect width="169" height="3" x="661.5" y="397.5" rx="1.5" transform="rotate(45, 746, 399)" opacity="0.45"></rect><rect width="487" height="3" x="221.5" y="359.5" rx="1.5" transform="rotate(45, 465, 361)" opacity="0.85"></rect><rect width="448" height="3" x="431" y="440.5" rx="1.5" transform="rotate(45, 655, 442)" opacity="0.36"></rect><rect width="310" height="3" x="300" y="154.5" rx="1.5" transform="rotate(45, 455, 156)" opacity="0.60"></rect><rect width="62" height="3" x="20" y="342.5" rx="1.5" transform="rotate(45, 51, 344)" opacity="0.69"></rect><rect width="422" height="3" x="-51" y="257.5" rx="1.5" transform="rotate(45, 160, 259)" opacity="0.69"></rect><rect width="808" height="3" x="-112" y="56.5" rx="1.5" transform="rotate(45, 292, 58)" opacity="0.50"></rect><rect width="280" height="3" x="503" y="509.5" rx="1.5" transform="rotate(45, 643, 511)" opacity="0.69"></rect><rect width="562" height="3" x="127" y="757.5" rx="1.5" transform="rotate(45, 408, 759)" opacity="0.70"></rect><rect width="554" height="3" x="100" y="395.5" rx="1.5" transform="rotate(45, 377, 397)" opacity="0.12"></rect><rect width="435" height="3" x="330.5" y="173.5" rx="1.5" transform="rotate(45, 548, 175)" opacity="0.77"></rect><rect width="469" height="3" x="350.5" y="46.5" rx="1.5" transform="rotate(45, 585, 48)" opacity="0.96"></rect><rect width="199" height="3" x="-70.5" y="476.5" rx="1.5" transform="rotate(45, 29, 478)" opacity="0.85"></rect><rect width="128" height="3" x="696" y="241.5" rx="1.5" transform="rotate(45, 760, 243)" opacity="0.99"></rect><rect width="223" height="3" x="508.5" y="655.5" rx="1.5" transform="rotate(45, 620, 657)" opacity="0.71"></rect><rect width="444" height="3" x="-35" y="749.5" rx="1.5" transform="rotate(45, 187, 751)" opacity="0.08"></rect><rect width="371" height="3" x="91.5" y="759.5" rx="1.5" transform="rotate(45, 277, 761)" opacity="0.94"></rect><rect width="149" height="3" x="353.5" y="666.5" rx="1.5" transform="rotate(45, 428, 668)" opacity="0.11"></rect><rect width="234" height="3" x="64" y="38.5" rx="1.5" transform="rotate(45, 181, 40)" opacity="0.58"></rect><rect width="250" height="3" x="633" y="491.5" rx="1.5" transform="rotate(45, 758, 493)" opacity="0.43"></rect><rect width="243" height="3" x="135.5" y="609.5" rx="1.5" transform="rotate(45, 257, 611)" opacity="0.70"></rect><rect width="145" height="3" x="419.5" y="28.5" rx="1.5" transform="rotate(45, 492, 30)" opacity="0.16"></rect><rect width="215" height="3" x="-0.5" y="564.5" rx="1.5" transform="rotate(45, 107, 566)" opacity="0.78"></rect><rect width="391" height="3" x="129.5" y="447.5" rx="1.5" transform="rotate(45, 325, 449)" opacity="0.09"></rect><rect width="42" height="3" x="739" y="316.5" rx="1.5" transform="rotate(45, 760, 318)" opacity="0.18"></rect><rect width="76" height="3" x="718" y="184.5" rx="1.5" transform="rotate(45, 756, 186)" opacity="0.67"></rect><rect width="388" height="3" x="500" y="277.5" rx="1.5" transform="rotate(45, 694, 279)" opacity="0.51"></rect><rect width="596" height="3" x="245" y="271.5" rx="1.5" transform="rotate(45, 543, 273)" opacity="0.60"></rect><rect width="846" height="3" x="-364" y="204.5" rx="1.5" transform="rotate(45, 59, 206)" opacity="0.29"></rect><rect width="329" height="3" x="384.5" y="404.5" rx="1.5" transform="rotate(45, 549, 406)" opacity="0.98"></rect><rect width="399" height="3" x="-37.5" y="132.5" rx="1.5" transform="rotate(45, 162, 134)" opacity="0.60"></rect><rect width="262" height="3" x="355" y="591.5" rx="1.5" transform="rotate(45, 486, 593)" opacity="0.21"></rect><rect width="524" height="3" x="0" y="169.5" rx="1.5" transform="rotate(45, 262, 171)" opacity="0.54"></rect><rect width="339" height="3" x="206.5" y="289.5" rx="1.5" transform="rotate(45, 376, 291)" opacity="0.35"></rect><rect width="48" height="3" x="165" y="346.5" rx="1.5" transform="rotate(45, 189, 348)" opacity="0.70"></rect><rect width="230" height="3" x="-78" y="679.5" rx="1.5" transform="rotate(45, 37, 681)" opacity="0.97"></rect></g></svg>